<svg xmlns="http://www.w3.org/2000/svg" viewBox="0 0 240 332" width="240" height="332"><rect width="240" height="332" fill="#F3F5EF"/><rect x="12" y="14" width="216" height="318" fill="#E4DCCF"/><rect x="8" y="10" width="224" height="8" fill="#F8F6F1"/><rect x="34" y="26" width="36" height="40" rx="2" fill="#F8F6F1"/><rect x="37" y="29" width="30" height="34" fill="#3C4F57"/><rect x="37" y="29" width="30" height="17" fill="#F2D49B"/><rect x="102" y="26" width="36" height="40" rx="2" fill="#F8F6F1"/><rect x="105" y="29" width="30" height="34" fill="#3C4F57"/><rect x="105" y="29" width="9" height="34" fill="#C46B5A"/><rect x="126" y="29" width="9" height="34" fill="#C46B5A"/><rect x="170" y="26" width="36" height="40" rx="2" fill="#F8F6F1"/><rect x="173" y="29" width="30" height="34" fill="#3C4F57"/><rect x="173" y="29" width="30" height="17" fill="#F2D49B"/><rect x="34" y="84" width="36" height="40" rx="2" fill="#F8F6F1"/><rect x="37" y="87" width="30" height="34" fill="#3C4F57"/><rect x="37" y="87" width="9" height="34" fill="#C46B5A"/><rect x="58" y="87" width="9" height="34" fill="#C46B5A"/><rect x="102" y="84" width="36" height="40" rx="2" fill="#F8F6F1"/><rect x="105" y="87" width="30" height="34" fill="#3C4F57"/><rect x="105" y="87" width="30" height="17" fill="#F2D49B"/><rect x="170" y="84" width="36" height="40" rx="2" fill="#F8F6F1"/><rect x="173" y="87" width="30" height="34" fill="#3C4F57"/><rect x="34" y="142" width="36" height="40" rx="2" fill="#F8F6F1"/><rect x="37" y="145" width="30" height="34" fill="#3C4F57"/><rect x="37" y="145" width="30" height="17" fill="#F2D49B"/><rect x="102" y="142" width="36" height="40" rx="2" fill="#F8F6F1"/><rect x="105" y="145" width="30" height="34" fill="#3C4F57"/><rect x="170" y="142" width="36" height="40" rx="2" fill="#F8F6F1"/><rect x="173" y="145" width="30" height="34" fill="#3C4F57"/><rect x="173" y="145" width="30" height="17" fill="#F2D49B"/><rect x="173" y="145" width="9" height="34" fill="#C46B5A"/><rect x="194" y="145" width="9" height="34" fill="#C46B5A"/><rect x="34" y="200" width="36" height="40" rx="2" fill="#F8F6F1"/><rect x="37" y="203" width="30" height="34" fill="#3C4F57"/><rect x="102" y="200" width="36" height="40" rx="2" fill="#F8F6F1"/><rect x="105" y="203" width="30" height="34" fill="#3C4F57"/><rect x="105" y="203" width="30" height="17" fill="#F2D49B"/><rect x="105" y="203" width="9" height="34" fill="#C46B5A"/><rect x="126" y="203" width="9" height="34" fill="#C46B5A"/><rect x="170" y="200" width="36" height="40" rx="2" fill="#F8F6F1"/><rect x="173" y="203" width="30" height="34" fill="#3C4F57"/><rect x="12" y="258" width="216" height="8" fill="#1C2A24"/><rect x="22" y="270" width="196" height="60" fill="#A7ACA8"/><line x1="22" y1="270" x2="218" y2="270" stroke="#8E948F" stroke-width="1"/><line x1="22" y1="276" x2="218" y2="276" stroke="#8E948F" stroke-width="1"/><line x1="22" y1="282" x2="218" y2="282" stroke="#8E948F" stroke-width="1"/><line x1="22" y1="288" x2="218" y2="288" stroke="#8E948F" stroke-width="1"/><line x1="22" y1="294" x2="218" y2="294" stroke="#8E948F" stroke-width="1"/><line x1="22" y1="300" x2="218" y2="300" stroke="#8E948F" stroke-width="1"/><line x1="22" y1="306" x2="218" y2="306" stroke="#8E948F" stroke-width="1"/><line x1="22" y1="312" x2="218" y2="312" stroke="#8E948F" stroke-width="1"/><line x1="22" y1="318" x2="218" y2="318" stroke="#8E948F" stroke-width="1"/><line x1="22" y1="324" x2="218" y2="324" stroke="#8E948F" stroke-width="1"/></svg>